<?xml version="1.0" encoding="utf-8"?>
<!-- Generator: Adobe Illustrator 15.0.2, SVG Export Plug-In . SVG Version: 6.00 Build 0)  -->
<!DOCTYPE svg PUBLIC "-//W3C//DTD SVG 1.0//EN" "http://www.w3.org/TR/2001/REC-SVG-20010904/DTD/svg10.dtd">
<svg version="1.0" id="Layer_1" xmlns="http://www.w3.org/2000/svg" xmlns:xlink="http://www.w3.org/1999/xlink" x="0px" y="0px"
	 width="353.633px" height="27.915px" viewBox="0 0 353.633 27.915" enable-background="new 0 0 353.633 27.915"
	 xml:space="preserve">
<g>
	<path fill="#FFFFFF" d="M0,0.36h9.118c5.599,0,9.878,2.64,9.878,8.638c0,4.04-2.199,6.639-5.519,7.799l6.399,10.758h-4.84
		L9.158,17.477h-4.92v10.078H0V0.36z M8.958,13.918c3.6,0,5.679-1.48,5.679-4.92c0-3.519-2.119-4.919-5.679-4.919h-4.72v9.839H8.958
		z"/>
	<path fill="#FFFFFF" d="M25.199,0.36h4.199v27.195h-4.199V0.36z"/>
	<path fill="#FFFFFF" d="M34.359,0.36h4.52l6.119,14.597c0.799,1.8,1.64,4.84,1.64,4.84s0.76-3,1.6-4.84L54.276,0.36h4.119
		L46.797,27.835h-0.52L34.359,0.36z"/>
	<path fill="#FFFFFF" d="M63.398,0.36h4.199v27.195h-4.199V0.36z"/>
	<path fill="#FFFFFF" d="M74.678,0.36h17.277v3.719H78.918v7.999h11.558v3.639H78.918v8.119h13.598v3.719H74.678V0.36z"/>
	<path fill="#FFFFFF" d="M98.558,0.36h9.118c5.6,0,9.879,2.64,9.879,8.638c0,4.04-2.199,6.639-5.52,7.799l6.399,10.758h-4.839
		l-5.879-10.078h-4.92v10.078h-4.239V0.36z M107.516,13.918c3.6,0,5.68-1.48,5.68-4.92c0-3.519-2.119-4.919-5.68-4.919h-4.719v9.839
		H107.516z"/>
	<path fill="#FFFFFF" d="M132.916,0.08h0.48l11.918,27.475h-4.399l-1.999-4.959h-11.559l-2,4.959h-4.079L132.916,0.08z
		 M137.396,19.076l-2.96-7.398c-0.6-1.479-1.318-3.799-1.359-3.999c-0.039,0.12-0.68,2.439-1.319,3.999l-2.96,7.398H137.396z"/>
	<path fill="#FFFFFF" d="M159.717,0.36h9.68c5.398,0,8.038,3.119,8.038,7.079c0,2.72-1.399,4.919-4.04,5.719
		c3.28,0.76,5.32,2.879,5.32,6.678c0,4.4-2.96,7.719-8.639,7.719h-10.359V0.36z M169.156,11.598c2.84,0,4.119-1.52,4.119-3.759
		c0-2.279-1.24-3.759-4.199-3.759h-5.119v7.519H169.156z M169.836,23.836c3.119,0,4.639-1.76,4.639-4.319
		c0-2.68-1.68-4.359-4.879-4.359h-5.639v8.679H169.836z"/>
	<path fill="#FFFFFF" d="M182.998,13.957C182.998,5.839,189.236,0,197.035,0c7.759,0,13.998,5.839,13.998,13.957
		c0,8.119-6.239,13.958-13.998,13.958C189.236,27.915,182.998,22.076,182.998,13.957z M206.714,13.957
		c0-5.799-3.999-10.158-9.679-10.158c-5.679,0-9.719,4.359-9.719,10.158s4.04,10.158,9.719,10.158
		C202.715,24.115,206.714,19.756,206.714,13.957z"/>
	<path fill="#FFFFFF" d="M224.076,0.08h0.48l11.918,27.475h-4.4l-1.999-4.959h-11.558l-2,4.959h-4.08L224.076,0.08z M228.556,19.076
		l-2.96-7.398c-0.6-1.479-1.319-3.799-1.359-3.999c-0.04,0.12-0.68,2.439-1.32,3.999l-2.959,7.398H228.556z"/>
	<path fill="#FFFFFF" d="M243.996,4.079h-8.078V0.36h20.356v3.719h-8.079v23.476h-4.199V4.079z"/>
	<path fill="#FFFFFF" d="M270.797,0.36h4.239v12.118h13.078V0.36h4.239v27.195h-4.239V16.237h-13.078v11.317h-4.239V0.36z"/>
	<path fill="#FFFFFF" d="M299.477,0.36h4.199v27.195h-4.199V0.36z"/>
	<path fill="#FFFFFF" d="M310.756,0.36h9.118c5.6,0,9.879,2.64,9.879,8.638c0,4.04-2.2,6.639-5.52,7.799l6.399,10.758h-4.839
		l-5.88-10.078h-4.919v10.078h-4.239V0.36z M319.715,13.918c3.599,0,5.679-1.48,5.679-4.92c0-3.519-2.12-4.919-5.679-4.919h-4.72
		v9.839H319.715z"/>
	<path fill="#FFFFFF" d="M335.796,0.36h17.277v3.719h-13.038v7.999h11.559v3.639h-11.559v8.119h13.598v3.719h-17.837V0.36z"/>
</g>
</svg>
