<?xml version="1.0" encoding="utf-8"?>
<!-- Generator: Adobe Illustrator 15.0.2, SVG Export Plug-In . SVG Version: 6.00 Build 0)  -->
<!DOCTYPE svg PUBLIC "-//W3C//DTD SVG 1.0//EN" "http://www.w3.org/TR/2001/REC-SVG-20010904/DTD/svg10.dtd">
<svg version="1.0" id="Layer_1" xmlns="http://www.w3.org/2000/svg" xmlns:xlink="http://www.w3.org/1999/xlink" x="0px" y="0px"
	 width="200px" height="55.16px" viewBox="0 0 200 55.16" enable-background="new 0 0 200 55.16" xml:space="preserve">
<g>
	<path fill="#FFFFFF" d="M66.409,17.521C66.409,5.354,57.729,0,46.372,0H27.876v55.16h8.6V34.719h9.979L58.378,55.16h9.814
		L55.213,33.34C61.948,30.986,66.409,25.714,66.409,17.521z M46.046,27.499h-9.57V7.544h9.57c7.222,0,11.52,2.839,11.52,9.977
		C57.566,24.497,53.347,27.499,46.046,27.499z"/>
	<path fill="#FFFFFF" d="M106.408,25.957c5.354-1.621,8.193-6.083,8.193-11.6C114.602,6.326,109.248,0,98.297,0H78.667v55.16h21.009
		c11.518,0,17.521-6.732,17.521-15.656C117.197,31.801,113.059,27.499,106.408,25.957z M87.264,7.544h10.383
		c6.003,0,8.519,3.002,8.519,7.625c0,4.542-2.598,7.625-8.356,7.625H87.264V7.544z M99.191,47.619H87.264V30.014h11.439
		c6.49,0,9.894,3.406,9.894,8.842C108.598,44.047,105.516,47.619,99.191,47.619z"/>
	<polygon fill="#FFFFFF" points="163.523,24.578 136.996,24.578 136.996,0 128.398,0 128.398,55.16 136.996,55.16 136.996,32.203 
		163.523,32.203 163.523,55.16 172.121,55.16 172.121,0 163.523,0 	"/>
	<rect x="182.883" y="24.578" fill="#FFFFFF" width="17.117" height="7.383"/>
	<rect y="24.578" fill="#FFFFFF" width="17.115" height="7.383"/>
</g>
</svg>
