<?xml version="1.0" encoding="utf-8"?>
<!DOCTYPE svg PUBLIC "-//W3C//DTD SVG 1.1//EN" "http://www.w3.org/Graphics/SVG/1.1/DTD/svg11.dtd">
<svg version="1.1" id="Layer_1" xmlns="http://www.w3.org/2000/svg" xmlns:xlink="http://www.w3.org/1999/xlink" x="0px" y="0px"
	 width="283.263px" height="31.807px" viewBox="0 0 283.263 31.807" enable-background="new 0 0 283.263 31.807"
	 xml:space="preserve">
<g>
	<path fill="#FFFFFF" d="M0,25.373l3.971-2.19c1.459,2.418,3.331,4.334,7.119,4.334c3.149,0,5.385-1.688,5.385-4.243
		c0-2.693-1.826-3.879-5.203-5.385l-2.053-0.914c-4.518-2.007-7.255-4.289-7.255-9.081C1.964,3.285,5.521,0,10.68,0
		c4.107,0,6.891,1.55,8.76,4.882l-3.787,2.327c-1.187-2.054-2.556-3.012-4.974-3.012c-2.465,0-4.016,1.506-4.016,3.605
		c0,2.327,1.323,3.376,4.472,4.746l2.007,0.913c5.294,2.327,8.123,4.79,8.123,9.766c0,5.429-4.243,8.578-10.084,8.578
		C5.294,31.807,1.734,28.886,0,25.373z"/>
	<path fill="#FFFFFF" d="M33.133,4.607h-9.219V0.364h23.228v4.243h-9.217v26.789h-4.792V4.607z"/>
	<path fill="#FFFFFF" d="M52.163,20.489V0.364h4.838v19.853c0,5.02,2.463,7.254,6.982,7.254s7.027-2.234,7.027-7.254V0.364h4.792
		v20.125c0,7.53-5.11,11.317-11.819,11.317C57.229,31.807,52.163,28.02,52.163,20.489z"/>
	<path fill="#FFFFFF" d="M100.491,4.607h-9.219V0.364h23.229v4.243h-9.218v26.789h-4.792V4.607z"/>
	<path fill="#FFFFFF" d="M119.705,0.364h19.714v4.243h-14.876v9.128h13.189v4.153h-13.189v9.264h15.516v4.244h-20.353V0.364z"/>
	<path fill="#FFFFFF" d="M153.567,13.278c-1.231-1.323-2.921-3.468-2.921-3.468s0.32,2.555,0.32,4.471v17.115h-4.473V0.045h0.639
		l17.112,18.39c1.188,1.277,2.875,3.469,2.875,3.469s-0.32-2.738-0.32-4.472V0.364h4.475v31.351h-0.595L153.567,13.278z"/>
	<path fill="#FFFFFF" d="M178.758,0.364h8.532c9.949,0,16.565,6.206,16.565,15.516c0,9.311-6.572,15.516-16.565,15.516h-8.532V0.364
		z M186.972,27.152c8.076,0,11.865-4.654,11.865-11.272s-3.789-11.273-11.865-11.273h-3.378v22.545H186.972z"/>
	<path fill="#FFFFFF" d="M209.881,0.364h19.713v4.243H214.72v9.128h13.188v4.153H214.72v9.264h15.514v4.244h-20.353V0.364z"/>
	<path fill="#FFFFFF" d="M236.671,0.364h10.402c6.389,0,11.271,3.012,11.271,9.857c0,4.609-2.51,7.576-6.297,8.898l7.303,12.277
		h-5.523l-6.707-11.5h-5.615v11.5h-4.834V0.364z M246.892,15.834c4.106,0,6.479-1.689,6.479-5.613c0-4.016-2.418-5.614-6.479-5.614
		h-5.387v11.227H246.892z"/>
	<path fill="#FFFFFF" d="M261.998,25.373l3.971-2.19c1.461,2.418,3.33,4.334,7.119,4.334c3.148,0,5.385-1.688,5.385-4.243
		c0-2.693-1.825-3.879-5.203-5.385l-2.054-0.914c-4.517-2.007-7.255-4.289-7.255-9.081c0-4.609,3.56-7.894,8.716-7.894
		c4.106,0,6.891,1.55,8.761,4.882l-3.787,2.327c-1.186-2.054-2.554-3.012-4.974-3.012c-2.464,0-4.016,1.506-4.016,3.605
		c0,2.327,1.323,3.376,4.472,4.746l2.008,0.913c5.294,2.327,8.123,4.79,8.123,9.766c0,5.429-4.243,8.578-10.084,8.578
		C267.291,31.807,263.732,28.886,261.998,25.373z"/>
</g>
</svg>